# xmcd
#
# Track frame offsets:
#	150
#	22575
#	36990
#	53597
#	74580
#	98337
#	115952
#	138777
#	163002
#	179760
#	197930
#	214132
#	229705
#	248857
#	265652
#	281885
#	297175
#
# Disc length: 4199
#
# Revision: 2
# Processed by: cddbd v1.5.1PL0 Copyright (c) Steve Scherf et al.
# Submitted via: EasyCDDAExtractor 5.1.0
# Normalized: r1:DSETVAR1
#
DISCID=f8106511
DTITLE=Various Artist - Blues and Ballads Volume 8
DYEAR=1900
DGENRE=Blues
TTITLE0=Micheal Jackson - Smile
TTITLE1=Jade and Chicago - Dream A Little Dream Of Me
TTITLE2=Deep Forest - Marta's Song
TTITLE3=TLC - Red Light Special
TTITLE4=Marillion - Beautiful
TTITLE5=Terry Symon - I Want To Know What Love Is
TTITLE6=Bon Jovi - This Ain't A Love Song
TTITLE7=Rod Stewart - This
TTITLE8=La Bouche - Do You Still Need Me
TTITLE9=Soul Sister - If This Is Love
TTITLE10=Bronski Beat - No Difference
TTITLE11=The Connelis - New Boy
TTITLE12=Celine Dion '95 - Pour Que Tu M'Aimes Encore
TTITLE13=The Kelly Family - Rose Of Red
TTITLE14=Fury In The Slaughferhouse - Down There
TTITLE15=Tonton David - Il Marche Seal
TTITLE16=Patricia Kaas '95 - La Chanson Des Miserables
EXTD=
EXTT0=
EXTT1=
EXTT2=
EXTT3=
EXTT4=
EXTT5=
EXTT6=
EXTT7=
EXTT8=
EXTT9=
EXTT10=
EXTT11=
EXTT12=
EXTT13=
EXTT14=
EXTT15=
EXTT16=
PLAYORDER=
